solid OpenSCAD_Model
  facet normal 0 0 -1
    outer loop
      vertex -105 -90.9511 0
      vertex -135 -90 0
      vertex -105 90.9511 0
    endloop
  endfacet
  facet normal 0 0 -1
    outer loop
      vertex -135 90 0
      vertex -105 90.9511 0
      vertex -135 -90 0
    endloop
  endfacet
  facet normal 0 0 -1
    outer loop
      vertex -135 -90 0
      vertex -129.402 -92.7636 0
      vertex -130.3 -94 0
    endloop
  endfacet
  facet normal -0 0 -1
    outer loop
      vertex -105 90.9511 0
      vertex -135 90 0
      vertex -127.948 93.2359 0
    endloop
  endfacet
  facet normal 0 0 -1
    outer loop
      vertex -127.948 -93.2359 0
      vertex -135 -90 0
      vertex -105 -90.9511 0
    endloop
  endfacet
  facet normal 0 0 -1
    outer loop
      vertex -105 90.9511 0
      vertex -127.948 93.2359 0
      vertex -126.045 99.9452 0
    endloop
  endfacet
  facet normal 0 0 -1
    outer loop
      vertex -127.948 94.7641 0
      vertex -126.045 99.9452 0
      vertex -127.948 93.2359 0
    endloop
  endfacet
  facet normal 0 0 -1
    outer loop
      vertex -127.948 94.7641 0
      vertex -128.09 99.5106 0
      vertex -126.045 99.9452 0
    endloop
  endfacet
  facet normal 0 0 -1
    outer loop
      vertex -129.402 95.2364 0
      vertex -128.09 99.5106 0
      vertex -127.948 94.7641 0
    endloop
  endfacet
  facet normal 0 0 -1
    outer loop
      vertex -129.402 95.2364 0
      vertex -130 98.6603 0
      vertex -128.09 99.5106 0
    endloop
  endfacet
  facet normal 0 0 -1
    outer loop
      vertex -131.691 97.4314 0
      vertex -129.402 95.2364 0
      vertex -130.3 94 0
    endloop
  endfacet
  facet normal 0 0 -1
    outer loop
      vertex -129.402 95.2364 0
      vertex -131.691 97.4314 0
      vertex -130 98.6603 0
    endloop
  endfacet
  facet normal 0 0 -1
    outer loop
      vertex -127.948 93.2359 0
      vertex -135 90 0
      vertex -129.402 92.7636 0
    endloop
  endfacet
  facet normal 0 0 -1
    outer loop
      vertex -135 -90 0
      vertex -131.691 -97.4314 0
      vertex -133.09 -95.8779 0
    endloop
  endfacet
  facet normal 0 -0 -1
    outer loop
      vertex -134.781 92.0791 0
      vertex -129.402 92.7636 0
      vertex -135 90 0
    endloop
  endfacet
  facet normal 0 0 -1
    outer loop
      vertex -135 -90 0
      vertex -133.09 -95.8779 0
      vertex -134.135 -94.0674 0
    endloop
  endfacet
  facet normal -0 0 -1
    outer loop
      vertex -129.402 92.7636 0
      vertex -134.781 92.0791 0
      vertex -130.3 94 0
    endloop
  endfacet
  facet normal 0 0 -1
    outer loop
      vertex -135 -90 0
      vertex -134.135 -94.0674 0
      vertex -134.781 -92.0791 0
    endloop
  endfacet
  facet normal 0 0 -1
    outer loop
      vertex -130.3 94 0
      vertex -133.09 95.8779 0
      vertex -131.691 97.4314 0
    endloop
  endfacet
  facet normal 0 0 -1
    outer loop
      vertex -130.3 94 0
      vertex -134.135 94.0674 0
      vertex -133.09 95.8779 0
    endloop
  endfacet
  facet normal -0 0 -1
    outer loop
      vertex -130.3 94 0
      vertex -134.781 92.0791 0
      vertex -134.135 94.0674 0
    endloop
  endfacet
  facet normal 0 0 -1
    outer loop
      vertex 0 -99.9452 0
      vertex -15 -90.9511 0
      vertex 0 99.9452 0
    endloop
  endfacet
  facet normal 0 0 -1
    outer loop
      vertex 0 -99.9452 0
      vertex -105 -90.9511 0
      vertex -15 -90.9511 0
    endloop
  endfacet
  facet normal 0 0 -1
    outer loop
      vertex -127.948 -93.2359 0
      vertex -126.045 -99.9452 0
      vertex -127.948 -94.7641 0
    endloop
  endfacet
  facet normal 0 0 -1
    outer loop
      vertex -126.045 -99.9452 0
      vertex -105 -90.9511 0
      vertex 0 -99.9452 0
    endloop
  endfacet
  facet normal 0 0 -1
    outer loop
      vertex -15 90.9511 0
      vertex 0 99.9452 0
      vertex -15 -90.9511 0
    endloop
  endfacet
  facet normal 0 0 -1
    outer loop
      vertex -105 90.9511 0
      vertex 0 99.9452 0
      vertex -15 90.9511 0
    endloop
  endfacet
  facet normal 0 0 -1
    outer loop
      vertex -105 90.9511 0
      vertex -126.045 99.9452 0
      vertex 0 99.9452 0
    endloop
  endfacet
  facet normal 0 0 -1
    outer loop
      vertex -126.045 -99.9452 0
      vertex -127.948 -93.2359 0
      vertex -105 -90.9511 0
    endloop
  endfacet
  facet normal 0 0 -1
    outer loop
      vertex -135 -90 0
      vertex -127.948 -93.2359 0
      vertex -129.402 -92.7636 0
    endloop
  endfacet
  facet normal 0 0 -1
    outer loop
      vertex -128.09 -99.5106 0
      vertex -127.948 -94.7641 0
      vertex -126.045 -99.9452 0
    endloop
  endfacet
  facet normal 0 0 -1
    outer loop
      vertex -128.09 -99.5106 0
      vertex -129.402 -95.2364 0
      vertex -127.948 -94.7641 0
    endloop
  endfacet
  facet normal 0 0 -1
    outer loop
      vertex -130 -98.6603 0
      vertex -129.402 -95.2364 0
      vertex -128.09 -99.5106 0
    endloop
  endfacet
  facet normal 0 0 -1
    outer loop
      vertex -131.691 -97.4314 0
      vertex -129.402 -95.2364 0
      vertex -130 -98.6603 0
    endloop
  endfacet
  facet normal 0 0 -1
    outer loop
      vertex -135 -90 0
      vertex -130.3 -94 0
      vertex -131.691 -97.4314 0
    endloop
  endfacet
  facet normal -0 0 -1
    outer loop
      vertex -129.402 -95.2364 0
      vertex -131.691 -97.4314 0
      vertex -130.3 -94 0
    endloop
  endfacet
  facet normal 1 0 0
    outer loop
      vertex 0 -90.9511 13.3
      vertex 0 -99.9452 13.3
      vertex 0 -90.9511 1
    endloop
  endfacet
  facet normal 1 0 0
    outer loop
      vertex 0 90.9511 1
      vertex 0 99.9452 13.3
      vertex 0 90.9511 13.3
    endloop
  endfacet
  facet normal 1 0 0
    outer loop
      vertex 0 99.9452 13.3
      vertex 0 90.9511 1
      vertex 0 99.9452 0
    endloop
  endfacet
  facet normal 1 -0 0
    outer loop
      vertex 0 -90.9511 1
      vertex 0 99.9452 0
      vertex 0 90.9511 1
    endloop
  endfacet
  facet normal 1 0 0
    outer loop
      vertex 0 -90.9511 1
      vertex 0 -99.9452 0
      vertex 0 99.9452 0
    endloop
  endfacet
  facet normal 1 0 0
    outer loop
      vertex 0 -99.9452 0
      vertex 0 -90.9511 1
      vertex 0 -99.9452 13.3
    endloop
  endfacet
  facet normal -0.308938 0.951082 0
    outer loop
      vertex -127.948 93.2359 0
      vertex -129.402 92.7636 13.3
      vertex -127.948 93.2359 13.3
    endloop
  endfacet
  facet normal -0.308938 0.951082 0
    outer loop
      vertex -129.402 92.7636 13.3
      vertex -127.948 93.2359 0
      vertex -129.402 92.7636 0
    endloop
  endfacet
  facet normal -0.308938 -0.951082 0
    outer loop
      vertex -129.402 95.2364 0
      vertex -127.948 94.7641 13.3
      vertex -129.402 95.2364 13.3
    endloop
  endfacet
  facet normal -0.308938 -0.951082 -0
    outer loop
      vertex -127.948 94.7641 13.3
      vertex -129.402 95.2364 0
      vertex -127.948 94.7641 0
    endloop
  endfacet
  facet normal 0.809109 -0.587658 0
    outer loop
      vertex -130.3 94 13.3
      vertex -129.402 95.2364 0
      vertex -129.402 95.2364 13.3
    endloop
  endfacet
  facet normal 0.809109 -0.587658 0
    outer loop
      vertex -129.402 95.2364 0
      vertex -130.3 94 13.3
      vertex -130.3 94 0
    endloop
  endfacet
  facet normal -1 0 0
    outer loop
      vertex -127.948 93.2359 0
      vertex -127.948 94.7641 13.3
      vertex -127.948 94.7641 0
    endloop
  endfacet
  facet normal -1 -0 0
    outer loop
      vertex -127.948 94.7641 13.3
      vertex -127.948 93.2359 0
      vertex -127.948 93.2359 13.3
    endloop
  endfacet
  facet normal 0.809109 0.587658 0
    outer loop
      vertex -129.402 92.7636 13.3
      vertex -130.3 94 0
      vertex -130.3 94 13.3
    endloop
  endfacet
  facet normal 0.809109 0.587658 0
    outer loop
      vertex -130.3 94 0
      vertex -129.402 92.7636 13.3
      vertex -129.402 92.7636 0
    endloop
  endfacet
  facet normal 0.809109 0.587658 0
    outer loop
      vertex -129.402 -95.2364 13.3
      vertex -130.3 -94 0
      vertex -130.3 -94 13.3
    endloop
  endfacet
  facet normal 0.809109 0.587658 0
    outer loop
      vertex -130.3 -94 0
      vertex -129.402 -95.2364 13.3
      vertex -129.402 -95.2364 0
    endloop
  endfacet
  facet normal -1 0 0
    outer loop
      vertex -127.948 -94.7641 0
      vertex -127.948 -93.2359 13.3
      vertex -127.948 -93.2359 0
    endloop
  endfacet
  facet normal -1 -0 0
    outer loop
      vertex -127.948 -93.2359 13.3
      vertex -127.948 -94.7641 0
      vertex -127.948 -94.7641 13.3
    endloop
  endfacet
  facet normal -0.308938 0.951082 0
    outer loop
      vertex -127.948 -94.7641 0
      vertex -129.402 -95.2364 13.3
      vertex -127.948 -94.7641 13.3
    endloop
  endfacet
  facet normal -0.308938 0.951082 0
    outer loop
      vertex -129.402 -95.2364 13.3
      vertex -127.948 -94.7641 0
      vertex -129.402 -95.2364 0
    endloop
  endfacet
  facet normal -0.308938 -0.951082 0
    outer loop
      vertex -129.402 -92.7636 0
      vertex -127.948 -93.2359 13.3
      vertex -129.402 -92.7636 13.3
    endloop
  endfacet
  facet normal -0.308938 -0.951082 -0
    outer loop
      vertex -127.948 -93.2359 13.3
      vertex -129.402 -92.7636 0
      vertex -127.948 -93.2359 0
    endloop
  endfacet
  facet normal 0.809109 -0.587658 0
    outer loop
      vertex -130.3 -94 13.3
      vertex -129.402 -92.7636 0
      vertex -129.402 -92.7636 13.3
    endloop
  endfacet
  facet normal 0.809109 -0.587658 0
    outer loop
      vertex -129.402 -92.7636 0
      vertex -130.3 -94 13.3
      vertex -130.3 -94 0
    endloop
  endfacet
  facet normal -0.951062 -0.309001 0
    outer loop
      vertex -134.135 -94.0674 0
      vertex -134.781 -92.0791 13.3
      vertex -134.781 -92.0791 0
    endloop
  endfacet
  facet normal -0.951062 -0.309001 0
    outer loop
      vertex -134.781 -92.0791 13.3
      vertex -134.135 -94.0674 0
      vertex -134.135 -94.0674 13.3
    endloop
  endfacet
  facet normal -0.866086 0.499895 0
    outer loop
      vertex -134.135 94.0674 0
      vertex -133.09 95.8779 13.3
      vertex -133.09 95.8779 0
    endloop
  endfacet
  facet normal -0.866086 0.499895 0
    outer loop
      vertex -133.09 95.8779 13.3
      vertex -134.135 94.0674 0
      vertex -134.135 94.0674 13.3
    endloop
  endfacet
  facet normal -0.587884 0.808945 0
    outer loop
      vertex -130 98.6603 0
      vertex -131.691 97.4314 13.3
      vertex -130 98.6603 13.3
    endloop
  endfacet
  facet normal -0.587884 0.808945 0
    outer loop
      vertex -131.691 97.4314 13.3
      vertex -130 98.6603 0
      vertex -131.691 97.4314 0
    endloop
  endfacet
  facet normal -1 0 0
    outer loop
      vertex -135 -90 0
      vertex -135 90 13.3
      vertex -135 90 0
    endloop
  endfacet
  facet normal -1 -0 0
    outer loop
      vertex -135 90 13.3
      vertex -135 -90 0
      vertex -135 -90 13.3
    endloop
  endfacet
  facet normal -0.951062 0.309001 0
    outer loop
      vertex -134.781 92.0791 0
      vertex -134.135 94.0674 13.3
      vertex -134.135 94.0674 0
    endloop
  endfacet
  facet normal -0.951062 0.309001 0
    outer loop
      vertex -134.135 94.0674 13.3
      vertex -134.781 92.0791 0
      vertex -134.781 92.0791 13.3
    endloop
  endfacet
  facet normal -0.866086 -0.499895 0
    outer loop
      vertex -133.09 -95.8779 0
      vertex -134.135 -94.0674 13.3
      vertex -134.135 -94.0674 0
    endloop
  endfacet
  facet normal -0.866086 -0.499895 0
    outer loop
      vertex -134.135 -94.0674 13.3
      vertex -133.09 -95.8779 0
      vertex -133.09 -95.8779 13.3
    endloop
  endfacet
  facet normal -0.406702 0.913561 0
    outer loop
      vertex -128.09 99.5106 0
      vertex -130 98.6603 13.3
      vertex -128.09 99.5106 13.3
    endloop
  endfacet
  facet normal -0.406702 0.913561 0
    outer loop
      vertex -130 98.6603 13.3
      vertex -128.09 99.5106 0
      vertex -130 98.6603 0
    endloop
  endfacet
  facet normal -0.994498 0.104755 0
    outer loop
      vertex -135 90 0
      vertex -134.781 92.0791 13.3
      vertex -134.781 92.0791 0
    endloop
  endfacet
  facet normal -0.994498 0.104755 0
    outer loop
      vertex -134.781 92.0791 13.3
      vertex -135 90 0
      vertex -135 90 13.3
    endloop
  endfacet
  facet normal 0 -1 0
    outer loop
      vertex -126.045 -99.9452 0
      vertex 0 -99.9452 13.3
      vertex -126.045 -99.9452 13.3
    endloop
  endfacet
  facet normal 0 -1 -0
    outer loop
      vertex 0 -99.9452 13.3
      vertex -126.045 -99.9452 0
      vertex 0 -99.9452 0
    endloop
  endfacet
  facet normal 0 1 -0
    outer loop
      vertex 0 99.9452 0
      vertex -126.045 99.9452 13.3
      vertex 0 99.9452 13.3
    endloop
  endfacet
  facet normal 0 1 0
    outer loop
      vertex -126.045 99.9452 13.3
      vertex 0 99.9452 0
      vertex -126.045 99.9452 0
    endloop
  endfacet
  facet normal 0 0 1
    outer loop
      vertex 0 99.9452 13.3
      vertex -125.309 90.9511 13.3
      vertex 0 90.9511 13.3
    endloop
  endfacet
  facet normal -0 0 1
    outer loop
      vertex -127.948 93.2359 13.3
      vertex -125.309 90.9511 13.3
      vertex -127.948 94.7641 13.3
    endloop
  endfacet
  facet normal -0 0 1
    outer loop
      vertex -127.948 94.7641 13.3
      vertex -125.309 90.9511 13.3
      vertex -126.045 99.9452 13.3
    endloop
  endfacet
  facet normal -0 0 1
    outer loop
      vertex -126.045 99.9452 13.3
      vertex -125.309 90.9511 13.3
      vertex 0 99.9452 13.3
    endloop
  endfacet
  facet normal -0 0 1
    outer loop
      vertex -125.309 -90.9511 13.3
      vertex 0 -99.9452 13.3
      vertex 0 -90.9511 13.3
    endloop
  endfacet
  facet normal 0 0 1
    outer loop
      vertex -125.309 -90.9511 13.3
      vertex -126.045 -99.9452 13.3
      vertex 0 -99.9452 13.3
    endloop
  endfacet
  facet normal 0 0 1
    outer loop
      vertex -127.948 -93.2359 13.3
      vertex -125.309 -90.9511 13.3
      vertex -126 -90 13.3
    endloop
  endfacet
  facet normal -0 0 1
    outer loop
      vertex -129.402 92.7636 13.3
      vertex -126 90 13.3
      vertex -127.948 93.2359 13.3
    endloop
  endfacet
  facet normal 0 0 1
    outer loop
      vertex -125.309 90.9511 13.3
      vertex -127.948 93.2359 13.3
      vertex -126 90 13.3
    endloop
  endfacet
  facet normal -0 0 1
    outer loop
      vertex -128.09 99.5106 13.3
      vertex -127.948 94.7641 13.3
      vertex -126.045 99.9452 13.3
    endloop
  endfacet
  facet normal 0 0 1
    outer loop
      vertex -128.09 99.5106 13.3
      vertex -129.402 95.2364 13.3
      vertex -127.948 94.7641 13.3
    endloop
  endfacet
  facet normal -0 0 1
    outer loop
      vertex -130 98.6603 13.3
      vertex -129.402 95.2364 13.3
      vertex -128.09 99.5106 13.3
    endloop
  endfacet
  facet normal -0 0 1
    outer loop
      vertex -131.691 97.4314 13.3
      vertex -129.402 95.2364 13.3
      vertex -130 98.6603 13.3
    endloop
  endfacet
  facet normal -0 0 1
    outer loop
      vertex -133.09 95.8779 13.3
      vertex -130.3 94 13.3
      vertex -131.691 97.4314 13.3
    endloop
  endfacet
  facet normal 0 0 1
    outer loop
      vertex -129.402 95.2364 13.3
      vertex -131.691 97.4314 13.3
      vertex -130.3 94 13.3
    endloop
  endfacet
  facet normal 0 0 1
    outer loop
      vertex -129.402 -92.7636 13.3
      vertex -126 -90 13.3
      vertex -129.402 92.7636 13.3
    endloop
  endfacet
  facet normal 0 0 1
    outer loop
      vertex -126 -90 13.3
      vertex -129.402 -92.7636 13.3
      vertex -127.948 -93.2359 13.3
    endloop
  endfacet
  facet normal 0 0 1
    outer loop
      vertex -130.3 94 13.3
      vertex -129.402 -92.7636 13.3
      vertex -129.402 92.7636 13.3
    endloop
  endfacet
  facet normal 0 0 1
    outer loop
      vertex -129.402 -92.7636 13.3
      vertex -130.3 94 13.3
      vertex -130.3 -94 13.3
    endloop
  endfacet
  facet normal 0 0 1
    outer loop
      vertex -126 90 13.3
      vertex -129.402 92.7636 13.3
      vertex -126 -90 13.3
    endloop
  endfacet
  facet normal 0 0 1
    outer loop
      vertex -125.309 -90.9511 13.3
      vertex -127.948 -93.2359 13.3
      vertex -127.948 -94.7641 13.3
    endloop
  endfacet
  facet normal 0 0 1
    outer loop
      vertex -125.309 -90.9511 13.3
      vertex -127.948 -94.7641 13.3
      vertex -126.045 -99.9452 13.3
    endloop
  endfacet
  facet normal 0 0 1
    outer loop
      vertex -127.948 -94.7641 13.3
      vertex -128.09 -99.5106 13.3
      vertex -126.045 -99.9452 13.3
    endloop
  endfacet
  facet normal -0 0 1
    outer loop
      vertex -129.402 -95.2364 13.3
      vertex -128.09 -99.5106 13.3
      vertex -127.948 -94.7641 13.3
    endloop
  endfacet
  facet normal 0 0 1
    outer loop
      vertex -129.402 -95.2364 13.3
      vertex -130 -98.6603 13.3
      vertex -128.09 -99.5106 13.3
    endloop
  endfacet
  facet normal 0 0 1
    outer loop
      vertex -131.691 -97.4314 13.3
      vertex -129.402 -95.2364 13.3
      vertex -130.3 -94 13.3
    endloop
  endfacet
  facet normal 0 0 1
    outer loop
      vertex -129.402 -95.2364 13.3
      vertex -131.691 -97.4314 13.3
      vertex -130 -98.6603 13.3
    endloop
  endfacet
  facet normal 0 0 1
    outer loop
      vertex -130.3 94 13.3
      vertex -135 90 13.3
      vertex -130.3 -94 13.3
    endloop
  endfacet
  facet normal -0 0 1
    outer loop
      vertex -134.135 94.0674 13.3
      vertex -130.3 94 13.3
      vertex -133.09 95.8779 13.3
    endloop
  endfacet
  facet normal -0 0 1
    outer loop
      vertex -135 -90 13.3
      vertex -130.3 -94 13.3
      vertex -135 90 13.3
    endloop
  endfacet
  facet normal 0 0 1
    outer loop
      vertex -134.781 92.0791 13.3
      vertex -130.3 94 13.3
      vertex -134.135 94.0674 13.3
    endloop
  endfacet
  facet normal -0 -0 1
    outer loop
      vertex -134.781 -92.0791 13.3
      vertex -130.3 -94 13.3
      vertex -135 -90 13.3
    endloop
  endfacet
  facet normal 0 0 1
    outer loop
      vertex -130.3 94 13.3
      vertex -134.781 92.0791 13.3
      vertex -135 90 13.3
    endloop
  endfacet
  facet normal 0 0 1
    outer loop
      vertex -130.3 -94 13.3
      vertex -133.09 -95.8779 13.3
      vertex -131.691 -97.4314 13.3
    endloop
  endfacet
  facet normal 0 0 1
    outer loop
      vertex -130.3 -94 13.3
      vertex -134.135 -94.0674 13.3
      vertex -133.09 -95.8779 13.3
    endloop
  endfacet
  facet normal 0 0 1
    outer loop
      vertex -130.3 -94 13.3
      vertex -134.781 -92.0791 13.3
      vertex -134.135 -94.0674 13.3
    endloop
  endfacet
  facet normal -0.207876 0.978155 0
    outer loop
      vertex -126.045 99.9452 0
      vertex -128.09 99.5106 13.3
      vertex -126.045 99.9452 13.3
    endloop
  endfacet
  facet normal -0.207876 0.978155 0
    outer loop
      vertex -128.09 99.5106 13.3
      vertex -126.045 99.9452 0
      vertex -128.09 99.5106 0
    endloop
  endfacet
  facet normal -0.743092 0.669189 0
    outer loop
      vertex -133.09 95.8779 0
      vertex -131.691 97.4314 13.3
      vertex -131.691 97.4314 0
    endloop
  endfacet
  facet normal -0.743092 0.669189 0
    outer loop
      vertex -131.691 97.4314 13.3
      vertex -133.09 95.8779 0
      vertex -133.09 95.8779 13.3
    endloop
  endfacet
  facet normal -0.587884 -0.808945 0
    outer loop
      vertex -131.691 -97.4314 0
      vertex -130 -98.6603 13.3
      vertex -131.691 -97.4314 13.3
    endloop
  endfacet
  facet normal -0.587884 -0.808945 -0
    outer loop
      vertex -130 -98.6603 13.3
      vertex -131.691 -97.4314 0
      vertex -130 -98.6603 0
    endloop
  endfacet
  facet normal -0.743092 -0.669189 0
    outer loop
      vertex -131.691 -97.4314 0
      vertex -133.09 -95.8779 13.3
      vertex -133.09 -95.8779 0
    endloop
  endfacet
  facet normal -0.743092 -0.669189 0
    outer loop
      vertex -133.09 -95.8779 13.3
      vertex -131.691 -97.4314 0
      vertex -131.691 -97.4314 13.3
    endloop
  endfacet
  facet normal -0.406702 -0.913561 0
    outer loop
      vertex -130 -98.6603 0
      vertex -128.09 -99.5106 13.3
      vertex -130 -98.6603 13.3
    endloop
  endfacet
  facet normal -0.406702 -0.913561 -0
    outer loop
      vertex -128.09 -99.5106 13.3
      vertex -130 -98.6603 0
      vertex -128.09 -99.5106 0
    endloop
  endfacet
  facet normal -0.994498 -0.104755 0
    outer loop
      vertex -134.781 -92.0791 0
      vertex -135 -90 13.3
      vertex -135 -90 0
    endloop
  endfacet
  facet normal -0.994498 -0.104755 0
    outer loop
      vertex -135 -90 13.3
      vertex -134.781 -92.0791 0
      vertex -134.781 -92.0791 13.3
    endloop
  endfacet
  facet normal -0.207876 -0.978155 0
    outer loop
      vertex -128.09 -99.5106 0
      vertex -126.045 -99.9452 13.3
      vertex -128.09 -99.5106 13.3
    endloop
  endfacet
  facet normal -0.207876 -0.978155 -0
    outer loop
      vertex -126.045 -99.9452 13.3
      vertex -128.09 -99.5106 0
      vertex -126.045 -99.9452 0
    endloop
  endfacet
  facet normal 0 -1 0
    outer loop
      vertex -105 90.9511 0
      vertex -15 90.9511 1
      vertex -105 90.9511 1
    endloop
  endfacet
  facet normal 0 -1 -0
    outer loop
      vertex -15 90.9511 1
      vertex -105 90.9511 0
      vertex -15 90.9511 0
    endloop
  endfacet
  facet normal 0 -1 0
    outer loop
      vertex -105 90.9511 1
      vertex -125.309 90.9511 13.3
      vertex -125.309 90.9511 1
    endloop
  endfacet
  facet normal 0 -1 0
    outer loop
      vertex -125.309 90.9511 13.3
      vertex -105 90.9511 1
      vertex 0 90.9511 13.3
    endloop
  endfacet
  facet normal 0 -1 0
    outer loop
      vertex -15 90.9511 1
      vertex 0 90.9511 13.3
      vertex -105 90.9511 1
    endloop
  endfacet
  facet normal 0 -1 -0
    outer loop
      vertex 0 90.9511 13.3
      vertex -15 90.9511 1
      vertex 0 90.9511 1
    endloop
  endfacet
  facet normal 0.809023 -0.587777 0
    outer loop
      vertex -126 90 13.3
      vertex -125.309 90.9511 1
      vertex -125.309 90.9511 13.3
    endloop
  endfacet
  facet normal 0.809023 -0.587777 0
    outer loop
      vertex -125.309 90.9511 1
      vertex -126 90 13.3
      vertex -126 90 1
    endloop
  endfacet
  facet normal 0 1 -0
    outer loop
      vertex -15 -90.9511 0
      vertex -105 -90.9511 1
      vertex -15 -90.9511 1
    endloop
  endfacet
  facet normal 0 1 0
    outer loop
      vertex -105 -90.9511 1
      vertex -15 -90.9511 0
      vertex -105 -90.9511 0
    endloop
  endfacet
  facet normal 0 1 0
    outer loop
      vertex -15 -90.9511 1
      vertex 0 -90.9511 13.3
      vertex 0 -90.9511 1
    endloop
  endfacet
  facet normal 0 1 0
    outer loop
      vertex -105 -90.9511 1
      vertex 0 -90.9511 13.3
      vertex -15 -90.9511 1
    endloop
  endfacet
  facet normal 0 1 0
    outer loop
      vertex 0 -90.9511 13.3
      vertex -105 -90.9511 1
      vertex -125.309 -90.9511 13.3
    endloop
  endfacet
  facet normal 0 1 0
    outer loop
      vertex -125.309 -90.9511 13.3
      vertex -105 -90.9511 1
      vertex -125.309 -90.9511 1
    endloop
  endfacet
  facet normal 0.809023 0.587777 0
    outer loop
      vertex -125.309 -90.9511 13.3
      vertex -126 -90 1
      vertex -126 -90 13.3
    endloop
  endfacet
  facet normal 0.809023 0.587777 0
    outer loop
      vertex -126 -90 1
      vertex -125.309 -90.9511 13.3
      vertex -125.309 -90.9511 1
    endloop
  endfacet
  facet normal 1 -0 0
    outer loop
      vertex -126 -90 13.3
      vertex -126 90 1
      vertex -126 90 13.3
    endloop
  endfacet
  facet normal 1 0 0
    outer loop
      vertex -126 90 1
      vertex -126 -90 13.3
      vertex -126 -90 1
    endloop
  endfacet
  facet normal 1 -0 0
    outer loop
      vertex -105 -90.9511 1
      vertex -105 90.9511 0
      vertex -105 90.9511 1
    endloop
  endfacet
  facet normal 1 0 0
    outer loop
      vertex -105 90.9511 0
      vertex -105 -90.9511 1
      vertex -105 -90.9511 0
    endloop
  endfacet
  facet normal -1 0 0
    outer loop
      vertex -15 -90.9511 0
      vertex -15 90.9511 1
      vertex -15 90.9511 0
    endloop
  endfacet
  facet normal -1 -0 0
    outer loop
      vertex -15 90.9511 1
      vertex -15 -90.9511 0
      vertex -15 -90.9511 1
    endloop
  endfacet
  facet normal 0 0 1
    outer loop
      vertex -126 90 1
      vertex -105 90.9511 1
      vertex -125.309 90.9511 1
    endloop
  endfacet
  facet normal 0 0 1
    outer loop
      vertex -105 90.9511 1
      vertex -126 90 1
      vertex -105 -90.9511 1
    endloop
  endfacet
  facet normal -0 0 1
    outer loop
      vertex -126 -90 1
      vertex -105 -90.9511 1
      vertex -126 90 1
    endloop
  endfacet
  facet normal 0 0 1
    outer loop
      vertex -105 -90.9511 1
      vertex -126 -90 1
      vertex -125.309 -90.9511 1
    endloop
  endfacet
  facet normal -0 0 1
    outer loop
      vertex -15 90.9511 1
      vertex 0 -90.9511 1
      vertex 0 90.9511 1
    endloop
  endfacet
  facet normal 0 0 1
    outer loop
      vertex 0 -90.9511 1
      vertex -15 90.9511 1
      vertex -15 -90.9511 1
    endloop
  endfacet
endsolid OpenSCAD_Model
